<svg width="271" height="239" viewBox="0 0 271 239" fill="none" xmlns="http://www.w3.org/2000/svg">
<rect x="234.217" y="45.792" width="29.8365" height="186.976" rx="14.9183" fill="#64ffda"/>
<rect x="5.46997" y="45.792" width="29.8365" height="186.976" rx="14.9183" fill="#64ffda"/>
<path d="M92.2901 152.519C90.3604 150.58 89.9866 147.581 91.3812 145.228L104.263 123.49C104.598 122.925 105.376 122.83 105.836 123.298L154.037 172.267L132.939 193.364L92.2901 152.519Z" fill="#64ffda"/>
<path d="M65.9502 83.0422C67.2214 84.2305 67.495 86.143 66.6079 87.64L52.7036 111.104C52.4591 111.516 51.8866 111.578 51.5597 111.227L12.9671 69.7884C8.09378 64.5557 8.24476 56.4021 13.3084 51.3535C18.368 46.3089 26.514 46.1777 31.7334 51.0568L65.9502 83.0422Z" fill="#64ffda"/>
<path d="M238.14 49.9918C243.966 44.1658 253.412 44.1659 259.238 49.9918C265.064 55.8177 265.064 65.2635 259.238 71.0894L134.953 195.374L113.855 174.277L238.14 49.9918Z" fill="#64ffda"/>
<path d="M122.39 27.8828C118.241 20.7534 120.675 11.6101 127.818 7.48574C134.94 3.37399 144.046 5.80967 148.164 12.9278L186.263 78.7808C187.55 81.0046 187.113 83.8243 185.214 85.5546L167.005 102.145C166.534 102.574 165.788 102.459 165.467 101.909L122.39 27.8828Z" fill="#64ffda"/>
<path d="M196.626 156.051C195.338 153.794 195.753 150.949 197.633 149.153L215.885 131.712C216.356 131.262 217.124 131.375 217.445 131.941L262.141 210.643C266.193 217.778 263.729 226.846 256.623 230.948C249.455 235.087 240.288 232.605 236.187 225.414L196.626 156.051Z" fill="#64ffda"/>
<rect x="129.292" y="0.0426941" width="29.8365" height="258.583" rx="14.9183" transform="rotate(30 129.292 0.0426941)" fill="#64ffda"/>
</svg>
